<svg id="Layer_1" data-name="Layer 1" xmlns="http://www.w3.org/2000/svg" viewBox="0 0 885.42 731.21"><title>inviertem-logo-negative</title><circle cx="446.09" cy="206.83" r="206.83" style="fill:#b2b2b2"/><path d="M493.4,52.73a6.82,6.82,0,0,1-5.91-3.41L479.22,35,471,49.32a6.82,6.82,0,1,1-11.81-6.82h0L473.32,18a6.82,6.82,0,0,1,11.81,0L499.3,42.5a6.82,6.82,0,0,1-2.5,9.32,6.74,6.74,0,0,1-3.4.91Z" transform="translate(-33.14)" style="fill:#dadada"/><path d="M318.3,227.83a6.79,6.79,0,0,1-3.4-.91l-24.55-14.19a6.82,6.82,0,0,1,0-11.81l24.55-14.17a6.82,6.82,0,1,1,6.82,11.81l-14.32,8.27,14.32,8.26a6.82,6.82,0,0,1-3.42,12.74Z" transform="translate(-33.14)" style="fill:#dadada"/><path d="M479.22,399.11a6.82,6.82,0,0,1-5.9-3.41l-14.17-24.55A6.82,6.82,0,0,1,471,364.37l8.26,14.28,8.27-14.28a6.82,6.82,0,1,1,11.81,6.82l-14.17,24.55A6.83,6.83,0,0,1,479.22,399.11Z" transform="translate(-33.14)" style="fill:#dadada"/><path d="M640.14,227.83a6.82,6.82,0,0,1-3.37-12.74l14.28-8.26-14.28-8.27a6.82,6.82,0,1,1,6.81-11.81l24.55,14.17a6.82,6.82,0,0,1,0,11.81L643.58,226.9A6.8,6.8,0,0,1,640.14,227.83Z" transform="translate(-33.14)" style="fill:#dadada"/><path d="M650.41,233.92l-12-2.42a6.82,6.82,0,0,0-8,5.36h0A153.36,153.36,0,0,1,509.29,358a6.82,6.82,0,0,0-5.36,8h0l2.42,12a6.84,6.84,0,0,0,6.68,5.5,7.71,7.71,0,0,0,1.35-.13,6.82,6.82,0,0,0,5.35-8l-1.09-5.47a167,167,0,0,0,18.46-5.6l2.14,5.15A6.81,6.81,0,1,0,552,364.52l-.12-.3-2.13-5.14a165,165,0,0,0,17-9.1l3.11,4.64a6.82,6.82,0,0,0,11.75-6.93c-.14-.22-.28-.44-.44-.65L578,342.38a167.9,167.9,0,0,0,14.9-12.24l4,4a6.82,6.82,0,1,0,9.76-9.52l-.12-.13-4-4a169.36,169.36,0,0,0,12.24-14.9l4.66,3.11a6.77,6.77,0,0,0,3.78,1.16A6.82,6.82,0,0,0,627,297.38l-4.62-3.1a166,166,0,0,0,9.08-17l5.15,2.13a6.82,6.82,0,1,0,5.51-12.47l-.29-.13-5.15-2.13a167,167,0,0,0,5.6-18.46l5.46,1.09a6.82,6.82,0,1,0,2.67-13.38h0Z" transform="translate(-33.14)" style="fill:#dadada"/><path d="M453.49,360.87a6.71,6.71,0,0,0-4.34-2.89A153.38,153.38,0,0,1,328.07,236.9a6.81,6.81,0,0,0-8-5.37L308,234a6.82,6.82,0,0,0,2.65,13.35l5.46-1.09a167.07,167.07,0,0,0,5.61,18.46l-5.15,2.13a6.82,6.82,0,1,0,4.92,12.72l.3-.12,5.14-2.13a164.92,164.92,0,0,0,9.09,17l-4.63,3.11A6.82,6.82,0,0,0,339,308.69l4.66-3.11a169.22,169.22,0,0,0,12.24,14.89l-4,4a6.82,6.82,0,0,0,9.52,9.76l.12-.12,4-4a167.9,167.9,0,0,0,14.9,12.24L377.33,347a6.82,6.82,0,0,0,11.31,7.58l3.09-4.64a167.25,167.25,0,0,0,17,9.1l-2.13,5.15a6.82,6.82,0,0,0,12.6,5.22l2.13-5.16a167.07,167.07,0,0,0,18.46,5.61l-1.09,5.46a6.82,6.82,0,0,0,13.3,3c0-.12.06-.24.08-.36l2.42-12A6.81,6.81,0,0,0,453.49,360.87Z" transform="translate(-33.14)" style="fill:#dadada"/><path d="M655.77,171.71a6.82,6.82,0,0,0-8-5.36h0l-5.46,1.09a166.86,166.86,0,0,0-5.6-18.45l5.15-2.14a6.82,6.82,0,1,0-4.93-12.72l-.29.12-5.15,2.13a163,163,0,0,0-9.09-17l4.63-3.11a6.81,6.81,0,1,0-6.92-11.74,7.31,7.31,0,0,0-.65.43l-4.67,3.11a167.46,167.46,0,0,0-12.24-14.89l4-4a6.82,6.82,0,0,0-9.65-9.65l-4,4A169.36,169.36,0,0,0,578,71.3l3.12-4.66a6.82,6.82,0,0,0-11.31-7.58l-3.1,4.64a166.89,166.89,0,0,0-17-9.13l2.14-5.14a6.82,6.82,0,0,0-12.61-5.22h0l-2.13,5.15a167.51,167.51,0,0,0-18.45-5.6l1.08-5.47a6.82,6.82,0,0,0-13.37-2.65l-2.42,12a6.8,6.8,0,0,0,5.33,8h0A153.38,153.38,0,0,1,630.38,176.75a6.82,6.82,0,0,0,8,5.37l12-2.42A6.82,6.82,0,0,0,655.77,171.71Z" transform="translate(-33.14)" style="fill:#dadada"/><path d="M454.52,47.67l-2.43-12a6.81,6.81,0,0,0-13.34,2.64l1.09,5.47a166.21,166.21,0,0,0-18.45,5.6l-2.15-5.15a6.81,6.81,0,1,0-12.71,4.92l.12.3,2.13,5.14a165,165,0,0,0-17,9.1L388.67,59A6.82,6.82,0,0,0,376.92,66c.14.22.28.44.44.65l3.11,4.66a172.86,172.86,0,0,0-14.89,12.24l-4-4A6.82,6.82,0,0,0,352,89.19l4,4a169.22,169.22,0,0,0-12.24,14.89L339,104.94a6.82,6.82,0,0,0-7.57,11.31l4.63,3.1a168.09,168.09,0,0,0-9.09,17l-5.15-2.13a6.82,6.82,0,0,0-5.22,12.59l5.16,2.13a165.76,165.76,0,0,0-5.61,18.47l-5.49-1.07A6.82,6.82,0,1,0,308,179.73h0l12,2.42a6.83,6.83,0,0,0,8-5.36A153.35,153.35,0,0,1,449.15,55.67a6.8,6.8,0,0,0,5.37-8Z" transform="translate(-33.14)" style="fill:#dadada"/><circle cx="446.09" cy="206.83" r="139.55" style="fill:#fbcd18"/><g style="opacity:0.150000005960464"><path d="M568.77,208.18a6.82,6.82,0,0,1-6.82-6.82h0V187.23l-2,1.68a6.85,6.85,0,0,1-8.67,0l-2-1.68v14.13a6.82,6.82,0,0,1-13.64,0V172.79a6.82,6.82,0,0,1,11.15-5.27l8.85,7.27,8.88-7.27a6.83,6.83,0,0,1,11.16,5.27v28.57a6.82,6.82,0,0,1-6.82,6.82Z" transform="translate(-33.14)" style="fill:#1d1d1b;stroke:#000;stroke-miterlimit:10"/><circle cx="522.45" cy="157.28" r="6.82" style="fill:#1d1d1b;stroke:#000;stroke-miterlimit:10"/></g><g style="opacity:0.150000005960464"><g id="Layer_2" data-name="Layer 2"><path d="M594.63,226.47H574a4.89,4.89,0,0,0-3.24,2.08l-5.92,9.12a12.33,12.33,0,0,0-1.38,3.85c-1,5.21-6.19,18.58-32.74,18.58-33,0-30.11-49.05-29.08-59.79a6.09,6.09,0,0,0-1-3.68l-22.23-30.39c-.69-.91-2.17-2.42-3.31-2.42H462.72c-1.14,0-2.64.06-3.35-.81l-13.92-17.29a4.7,4.7,0,0,0-3.34-1.48H425.62c-1.14,0-3.18,1.44-3.18,2.58v4.12c0,1.14.2,1.13-.94,1.13H409.13a6.6,6.6,0,0,1-3.67-.8l-17.39-13.74a6.67,6.67,0,0,0-3.67-1.11H363.79a1.54,1.54,0,0,0-1.61,1.47,1.67,1.67,0,0,0,.09.58l11.31,42.15c.29,1.1-.38,2.79-1.52,2.79h-8.27c-1.14,0-1.41-.11-.61.69l13.58,13.19a17.55,17.55,0,0,1,2.52,2.85l22.62,37.68a2.25,2.25,0,0,0,2.9.84l4.56-2.27a2.25,2.25,0,0,0,1.05-2.83L383.13,166.5c-.43-1.06.14-2.68,1.28-2.68h4.13c1.13,0,2.56,1.54,3.23,2.49L430.7,225.1a17.3,17.3,0,0,1,1.71,3.89l7.11,25a7,7,0,0,0,2.26,3.24l37.84,26.51a5.43,5.43,0,0,0,3.71.77L520,276.83a6.08,6.08,0,0,1,3.79.64L541.37,288a2.78,2.78,0,0,0,3.23-.4l5.32-5.08a5.59,5.59,0,0,1,3.53-1.22h12.37a1.32,1.32,0,0,0,1.37-1.29,1.39,1.39,0,0,0-.24-.79l-2.27-4.68a3.16,3.16,0,0,1,.53-3.37l25.94-26a8.85,8.85,0,0,0,2-3.48l3.12-12.87a1.84,1.84,0,0,0-1.22-2.29A1.59,1.59,0,0,0,594.63,226.47Z" transform="translate(-33.14)" style="fill:#1d1d1b;stroke:#000;stroke-miterlimit:10"/></g></g><path d="M476.44,0V413.66c114.23,0,206.83-92.61,206.83-206.83S590.67,0,476.44,0Z" transform="translate(-33.14)" style="fill:#100f0e;opacity:0.070000000298023;isolation:isolate"/><path d="M124.94,627.79A55.78,55.78,0,0,1,118,629a73.3,73.3,0,0,1-9.3.6,41.35,41.35,0,0,1-8.1-.7,14.32,14.32,0,0,1-5.9-2.5,10.77,10.77,0,0,1-3.6-5,24.36,24.36,0,0,1-1.2-8.4V507.39q2.2-.39,7-1.1a64.8,64.8,0,0,1,9.2-.7,42.13,42.13,0,0,1,8.1.7,14.45,14.45,0,0,1,5.9,2.5,10.82,10.82,0,0,1,3.6,5,24.44,24.44,0,0,1,1.2,8.4Z" transform="translate(-33.14)" style="fill:#fff"/><path d="M199.94,567q0-6.19-3.5-9.1t-9.5-2.9a32,32,0,0,0-7.9,1,20.08,20.08,0,0,0-6.7,3v69.4a46.15,46.15,0,0,1-6.3,1.2,64.36,64.36,0,0,1-8.9.6,47,47,0,0,1-7.9-.6,13.47,13.47,0,0,1-5.9-2.4,11.55,11.55,0,0,1-3.7-4.9,21.11,21.11,0,0,1-1.3-8.1v-60a15.44,15.44,0,0,1,2.3-8.8,24.32,24.32,0,0,1,6.3-6.2,57.23,57.23,0,0,1,17.1-7.8,81.77,81.77,0,0,1,22.9-3q22.6,0,34.8,9.9t12.2,27.5v62.6a46.15,46.15,0,0,1-6.3,1.2,64.36,64.36,0,0,1-8.9.6,47,47,0,0,1-7.9-.6,13.47,13.47,0,0,1-5.9-2.4,11.55,11.55,0,0,1-3.7-4.9,21.11,21.11,0,0,1-1.3-8.1Z" transform="translate(-33.14)" style="fill:#fff"/><path d="M307.34,626a22.4,22.4,0,0,1-8.2,3.6,48.88,48.88,0,0,1-12.2,1.4,40.94,40.94,0,0,1-13.5-2q-5.7-2-7.9-6.4-1.8-3.39-4.3-9.5t-5.3-13.6q-2.81-7.5-5.8-16.1t-5.7-17q-2.7-8.4-4.9-16.2t-3.6-13.8a25.94,25.94,0,0,1,17.8-7q7,0,11.5,2.9t6.7,10.9l7.8,30.6q2.2,9,4.2,16.3t3,11.3h1q3.8-14.79,8-32.8t7.6-35.4a31.92,31.92,0,0,1,7.7-2.8,37,37,0,0,1,8.3-1,21.84,21.84,0,0,1,11.8,3q4.8,3,4.8,10.4a42.38,42.38,0,0,1-1.5,9.3q-1.5,6.1-3.8,13.8t-5.4,16.3q-3.1,8.61-6.3,16.8t-6.3,15.3Q309.74,621.4,307.34,626Z" transform="translate(-33.14)" style="fill:#fff"/><path d="M340.54,504.39a17.59,17.59,0,0,1,5.1-12.8q5.1-5.19,13.5-5.2t13.5,5.2a18.61,18.61,0,0,1,0,25.6q-5.1,5.2-13.5,5.2t-13.5-5.2A17.56,17.56,0,0,1,340.54,504.39Zm35.6,124c-1.47.27-3.63.63-6.5,1.1a53.74,53.74,0,0,1-8.7.7,47,47,0,0,1-7.9-.6,13.47,13.47,0,0,1-5.9-2.4,11.55,11.55,0,0,1-3.7-4.9,21.11,21.11,0,0,1-1.3-8.1v-81.4c1.47-.26,3.63-.63,6.5-1.1a54.89,54.89,0,0,1,8.7-.7,47,47,0,0,1,7.9.6,13.47,13.47,0,0,1,5.9,2.4,11.61,11.61,0,0,1,3.7,4.9,21.18,21.18,0,0,1,1.3,8.1Z" transform="translate(-33.14)" style="fill:#fff"/><path d="M439.14,631.79a70.1,70.1,0,0,1-21.9-3.3,49.65,49.65,0,0,1-17.6-9.9,45.86,45.86,0,0,1-11.8-16.6q-4.3-10-4.3-23.4,0-13.2,4.3-22.7a44.92,44.92,0,0,1,11.3-15.6,45.4,45.4,0,0,1,16-9,59.72,59.72,0,0,1,18.4-2.9,55.62,55.62,0,0,1,19.3,3.2,46.6,46.6,0,0,1,15,8.8,39.19,39.19,0,0,1,9.8,13.4,41.11,41.11,0,0,1,3.5,17q0,6.81-3.8,10.4t-10.6,4.6l-49.4,7.4a16.63,16.63,0,0,0,9,9.9,35.28,35.28,0,0,0,15.6,3.3,55.81,55.81,0,0,0,15.5-2.1,49.14,49.14,0,0,0,11.9-4.9,16.87,16.87,0,0,1,5.4,5.6,14.33,14.33,0,0,1,2.2,7.6q0,9-8.4,13.4a44.5,44.5,0,0,1-14.4,4.6A101.35,101.35,0,0,1,439.14,631.79Zm-5.6-78.6a19.92,19.92,0,0,0-8.3,1.6,16.42,16.42,0,0,0-9,9.7,23.11,23.11,0,0,0-1.3,6.3l34.2-5.6a15.17,15.17,0,0,0-4.4-8Q440.94,553.2,433.54,553.19Z" transform="translate(-33.14)" style="fill:#fff"/><path d="M521.54,628.39a46.15,46.15,0,0,1-6.3,1.2,64.36,64.36,0,0,1-8.9.6,47,47,0,0,1-7.9-.6,13.47,13.47,0,0,1-5.9-2.4,11.55,11.55,0,0,1-3.7-4.9,21.11,21.11,0,0,1-1.3-8.1v-60a17.12,17.12,0,0,1,1.7-7.9,18.63,18.63,0,0,1,4.9-5.9,35.47,35.47,0,0,1,7.9-4.7,81.84,81.84,0,0,1,10.1-3.7,86.53,86.53,0,0,1,11.2-2.5,75.54,75.54,0,0,1,11.6-.9q9.6,0,15.2,3.7t5.6,12.1a19.36,19.36,0,0,1-.8,5.5,24.72,24.72,0,0,1-2,4.9c-2.8,0-5.67.14-8.6.4s-5.8.67-8.6,1.2-5.43,1.1-7.9,1.7a34.59,34.59,0,0,0-6.3,2.1Z" transform="translate(-33.14)" style="fill:#fff"/><path d="M593.74,595.19q0,5.2,3.3,7.4t9.3,2.2a39.31,39.31,0,0,0,6.2-.5,33.89,33.89,0,0,0,5.6-1.3,24.69,24.69,0,0,1,3.1,4.9,14.83,14.83,0,0,1,1.3,6.5,15.46,15.46,0,0,1-5.7,12.4q-5.7,4.8-20.1,4.8-17.6,0-27.1-8t-9.5-26V512c1.47-.4,3.56-.83,6.3-1.3a52.33,52.33,0,0,1,8.7-.7q8.8,0,13.7,3.1t4.9,13.1V539h26.2a34.06,34.06,0,0,1,2.3,5.5,23.1,23.1,0,0,1,1.1,7.3q0,7-3.1,10.1a11.2,11.2,0,0,1-8.3,3.1h-18.2Z" transform="translate(-33.14)" style="fill:#fff"/><path d="M679.94,631.79a70.1,70.1,0,0,1-21.9-3.3,49.65,49.65,0,0,1-17.6-9.9,45.75,45.75,0,0,1-11.8-16.6q-4.3-10-4.3-23.4,0-13.2,4.3-22.7a44.79,44.79,0,0,1,11.3-15.6,45.4,45.4,0,0,1,16-9,59.72,59.72,0,0,1,18.4-2.9,55.62,55.62,0,0,1,19.3,3.2,46.6,46.6,0,0,1,15,8.8,39.19,39.19,0,0,1,9.8,13.4,41.11,41.11,0,0,1,3.5,17q0,6.81-3.8,10.4t-10.6,4.6l-49.4,7.4a16.63,16.63,0,0,0,9,9.9,35.28,35.28,0,0,0,15.6,3.3,55.86,55.86,0,0,0,15.5-2.1,49.14,49.14,0,0,0,11.9-4.9,16.87,16.87,0,0,1,5.4,5.6,14.42,14.42,0,0,1,2.2,7.6q0,9-8.4,13.4a44.5,44.5,0,0,1-14.4,4.6A101.35,101.35,0,0,1,679.94,631.79Zm-5.6-78.6a19.92,19.92,0,0,0-8.3,1.6,16.81,16.81,0,0,0-5.7,4.1,17,17,0,0,0-3.3,5.6,23.11,23.11,0,0,0-1.3,6.3l34.2-5.6a15.17,15.17,0,0,0-4.4-8Q681.73,553.2,674.34,553.19Z" transform="translate(-33.14)" style="fill:#fff"/><path d="M813.34,598.79a19.1,19.1,0,0,1-6.7,3.5,31.35,31.35,0,0,1-9.5,1.3,33.61,33.61,0,0,1-11.9-1.8,9.56,9.56,0,0,1-6.1-6.2q-5.6-17.6-9.2-28.5t-5.6-19.1h-1q-.6,11.81-.9,21.5t-.4,18.9q-.1,9.21-.4,18.6t-.9,20.8a35.79,35.79,0,0,1-6.8,1.7,50.65,50.65,0,0,1-8.4.7q-8.81,0-13.7-2.8t-4.9-10.2l5.8-102q1.6-2.6,7-5.6t15.2-3q10.6,0,16.6,3.3a19.54,19.54,0,0,1,8.8,10.7q1.8,4.8,3.9,11t4.2,12.8q2.1,6.6,4.1,13.1t3.6,11.7h1q4.8-16.8,9.6-32.5t8.8-26.3a32.71,32.71,0,0,1,7.7-2.7,46.31,46.31,0,0,1,10.5-1.1q9.79,0,16,2.9t7.2,8.3q.79,4,1.7,12.3t1.9,18.7q1,10.41,2,22t1.9,22.3q.9,10.71,1.5,19.6t.8,13.7a25.92,25.92,0,0,1-7.1,2.9,41.3,41.3,0,0,1-9.5.9,28.48,28.48,0,0,1-12.8-2.6q-5.21-2.6-5.6-10.2-1.2-21.79-1.5-39.2t-.9-29.2h-1q-2,7.8-5.8,19.6T813.34,598.79Z" transform="translate(-33.14)" style="fill:#fbcd18"/><path d="M71.92,663.1v9.52H58.48v40h-12v-40H33.14V663.1Z" transform="translate(-33.14)" style="fill:#dadada"/><path d="M102.12,675.46a17.69,17.69,0,0,1,7.21,7,22.84,22.84,0,0,1,0,21.28,17.65,17.65,0,0,1-7.21,7,23.69,23.69,0,0,1-20.82,0,17.63,17.63,0,0,1-7.25-7,22.91,22.91,0,0,1,0-21.28,17.67,17.67,0,0,1,7.25-7,23.6,23.6,0,0,1,20.82,0ZM86,685.89q-2.34,2.49-2.34,7.17T86,700.2a7.66,7.66,0,0,0,5.78,2.45,7.55,7.55,0,0,0,5.74-2.45q2.31-2.44,2.31-7.14t-2.31-7.17a7.52,7.52,0,0,0-5.74-2.49A7.62,7.62,0,0,0,86,685.89Z" transform="translate(-33.14)" style="fill:#dadada"/><path d="M137.23,675.07a11.87,11.87,0,0,1,4.69,5.53V660.79h12v51.8h-12v-7.07a11.78,11.78,0,0,1-4.69,5.53,14.11,14.11,0,0,1-7.7,2,15.82,15.82,0,0,1-8.65-2.41,16.52,16.52,0,0,1-6-7,26.9,26.9,0,0,1,0-21.31,16.59,16.59,0,0,1,6-6.93,15.83,15.83,0,0,1,8.65-2.42A14.19,14.19,0,0,1,137.23,675.07Zm-10,11a11.64,11.64,0,0,0,0,14,8.79,8.79,0,0,0,12.39-.07,11.18,11.18,0,0,0,0-13.89,8.15,8.15,0,0,0-6.19-2.56A8.06,8.06,0,0,0,127.18,686.06Z" transform="translate(-33.14)" style="fill:#dadada"/><path d="M187.31,675.46a17.69,17.69,0,0,1,7.21,7,22.84,22.84,0,0,1,0,21.28,17.65,17.65,0,0,1-7.21,7,23.69,23.69,0,0,1-20.82,0,17.63,17.63,0,0,1-7.25-7,22.91,22.91,0,0,1,0-21.28,17.67,17.67,0,0,1,7.25-7,23.6,23.6,0,0,1,20.82,0Zm-16.17,10.43q-2.34,2.49-2.34,7.17t2.34,7.14a7.66,7.66,0,0,0,5.78,2.45,7.55,7.55,0,0,0,5.74-2.45q2.31-2.44,2.31-7.14t-2.31-7.17a7.52,7.52,0,0,0-5.74-2.49A7.62,7.62,0,0,0,171.14,685.89Z" transform="translate(-33.14)" style="fill:#dadada"/><path d="M226,676.75a16.12,16.12,0,0,1,5.56,9.8H220.32a6.25,6.25,0,0,0-2.21-3.74,6.7,6.7,0,0,0-4.31-1.37,4.63,4.63,0,0,0-3.07.88,3.05,3.05,0,0,0-1.06,2.48,2.91,2.91,0,0,0,1.93,2.73,29.88,29.88,0,0,0,6.06,1.82,60.59,60.59,0,0,1,7.34,2.14,12.1,12.1,0,0,1,5,3.53,9.84,9.84,0,0,1,2.1,6.58,10,10,0,0,1-1.83,5.95,11.92,11.92,0,0,1-5.25,4.06,20.48,20.48,0,0,1-8.12,1.47q-7.9,0-12.67-3.5a14.76,14.76,0,0,1-5.8-10H210a5.19,5.19,0,0,0,2.14,3.85,8,8,0,0,0,4.79,1.33,4.45,4.45,0,0,0,3.08-.94,3.19,3.19,0,0,0,1-2.49,3,3,0,0,0-1.92-2.9,36.1,36.1,0,0,0-6.26-1.86,48.75,48.75,0,0,1-7.14-2,11.76,11.76,0,0,1-4.83-3.39,9.43,9.43,0,0,1-2-6.41,10.44,10.44,0,0,1,4-8.5q4-3.25,11.26-3.26Q221.51,673,226,676.75Z" transform="translate(-33.14)" style="fill:#dadada"/><path d="M246.56,658a8.39,8.39,0,0,1,10.36,0,5.82,5.82,0,0,1,2,4.51,5.76,5.76,0,0,1-2,4.45,8.43,8.43,0,0,1-10.36,0,5.79,5.79,0,0,1-2-4.45A5.85,5.85,0,0,1,246.56,658Zm11.13,15.5v39.06h-12V673.53Z" transform="translate(-33.14)" style="fill:#dadada"/><path d="M324.4,677.56q4.14,4.44,4.13,12.35v22.68h-11.9V691.31a8,8,0,0,0-2-5.77,7.19,7.19,0,0,0-5.43-2.07,7.33,7.33,0,0,0-5.63,2.21,8.69,8.69,0,0,0-2.07,6.19v20.72h-12V691.31a8,8,0,0,0-2-5.77,7.05,7.05,0,0,0-5.39-2.07,7.55,7.55,0,0,0-5.67,2.17,8.62,8.62,0,0,0-2.1,6.23v20.72h-12V673.53h12v6.65a11.72,11.72,0,0,1,4.73-5.18,14.32,14.32,0,0,1,7.45-1.89,15,15,0,0,1,7.91,2.07,13,13,0,0,1,5.18,5.91,15.76,15.76,0,0,1,5.57-5.81,14.7,14.7,0,0,1,7.8-2.17Q320.27,673.11,324.4,677.56Z" transform="translate(-33.14)" style="fill:#dadada"/><path d="M366,675.46a16.59,16.59,0,0,1,6,6.93,26.9,26.9,0,0,1,0,21.31,16.52,16.52,0,0,1-6,7,15.85,15.85,0,0,1-8.65,2.41,14.11,14.11,0,0,1-7.7-2,11.78,11.78,0,0,1-4.69-5.53v25.69H333V673.53h12v7.07a11.87,11.87,0,0,1,4.69-5.53,14.19,14.19,0,0,1,7.7-2A15.86,15.86,0,0,1,366,675.46ZM347.33,686.1a11.18,11.18,0,0,0,0,13.89,8.79,8.79,0,0,0,12.39.07,11.64,11.64,0,0,0,0-14,8.82,8.82,0,0,0-12.39,0Z" transform="translate(-33.14)" style="fill:#dadada"/><path d="M415.82,673.53v39.06h-12v-7.07a12.91,12.91,0,0,1-5,5.46,14.51,14.51,0,0,1-7.74,2,13.49,13.49,0,0,1-10.67-4.48q-4-4.47-4-12.32V673.53h11.9v21.21a8.71,8.71,0,0,0,2.07,6.2,7.24,7.24,0,0,0,5.56,2.2,7.36,7.36,0,0,0,5.74-2.31,9.44,9.44,0,0,0,2.1-6.58V673.53Z" transform="translate(-33.14)" style="fill:#dadada"/><path d="M432.55,660.79v51.8h-12v-51.8Z" transform="translate(-33.14)" style="fill:#dadada"/><path d="M463.39,676.75a16.12,16.12,0,0,1,5.56,9.8h-11.2a6.19,6.19,0,0,0-2.2-3.74,6.72,6.72,0,0,0-4.31-1.37,4.67,4.67,0,0,0-3.08.88,3,3,0,0,0-1.05,2.48,2.9,2.9,0,0,0,1.93,2.73,30,30,0,0,0,6,1.82,60.27,60.27,0,0,1,7.35,2.14,12.07,12.07,0,0,1,5,3.53,9.79,9.79,0,0,1,2.1,6.58,10,10,0,0,1-1.82,5.95,11.92,11.92,0,0,1-5.25,4.06,20.48,20.48,0,0,1-8.12,1.47q-7.9,0-12.67-3.5a14.77,14.77,0,0,1-5.81-10h11.55a5.19,5.19,0,0,0,2.14,3.85,8,8,0,0,0,4.79,1.33,4.45,4.45,0,0,0,3.08-.94,3.19,3.19,0,0,0,1.05-2.49,3,3,0,0,0-1.92-2.9,36.27,36.27,0,0,0-6.27-1.86,49.47,49.47,0,0,1-7.14-2,11.89,11.89,0,0,1-4.83-3.39,9.48,9.48,0,0,1-2-6.41,10.44,10.44,0,0,1,4-8.5q4-3.25,11.27-3.26T463.39,676.75Z" transform="translate(-33.14)" style="fill:#dadada"/><path d="M534.61,677.56q4.14,4.44,4.13,12.35v22.68h-11.9V691.31a8,8,0,0,0-2-5.77,7.19,7.19,0,0,0-5.43-2.07,7.33,7.33,0,0,0-5.63,2.21,8.69,8.69,0,0,0-2.07,6.19v20.72h-12V691.31a8,8,0,0,0-2-5.77,7.05,7.05,0,0,0-5.39-2.07,7.55,7.55,0,0,0-5.67,2.17,8.62,8.62,0,0,0-2.1,6.23v20.72h-12V673.53h12v6.65a11.66,11.66,0,0,1,4.73-5.18,14.3,14.3,0,0,1,7.45-1.89,15,15,0,0,1,7.91,2.07,13,13,0,0,1,5.18,5.91,15.68,15.68,0,0,1,5.57-5.81,14.65,14.65,0,0,1,7.8-2.17Q530.49,673.11,534.61,677.56Z" transform="translate(-33.14)" style="fill:#dadada"/><path d="M571.89,675.46a17.75,17.75,0,0,1,7.21,7,22.91,22.91,0,0,1,0,21.28,17.72,17.72,0,0,1-7.21,7,23.71,23.71,0,0,1-20.83,0,17.61,17.61,0,0,1-7.24-7,22.84,22.84,0,0,1,0-21.28,17.65,17.65,0,0,1,7.24-7,23.62,23.62,0,0,1,20.83,0Zm-16.17,10.43q-2.36,2.49-2.35,7.17t2.35,7.14a7.63,7.63,0,0,0,5.77,2.45,7.54,7.54,0,0,0,5.74-2.45q2.31-2.44,2.31-7.14t-2.31-7.17a7.51,7.51,0,0,0-5.74-2.49A7.6,7.6,0,0,0,555.72,685.89Z" transform="translate(-33.14)" style="fill:#dadada"/><path d="M610.53,676.75a16.16,16.16,0,0,1,5.56,9.8h-11.2a6.24,6.24,0,0,0-2.2-3.74,6.72,6.72,0,0,0-4.31-1.37,4.67,4.67,0,0,0-3.08.88,3,3,0,0,0-1,2.48,2.9,2.9,0,0,0,1.93,2.73,30,30,0,0,0,6.05,1.82,60.27,60.27,0,0,1,7.35,2.14,12.13,12.13,0,0,1,5,3.53,9.79,9.79,0,0,1,2.1,6.58,10.1,10.1,0,0,1-1.82,5.95,11.92,11.92,0,0,1-5.25,4.06,20.52,20.52,0,0,1-8.12,1.47q-7.9,0-12.67-3.5a14.77,14.77,0,0,1-5.81-10h11.55a5.19,5.19,0,0,0,2.14,3.85,8,8,0,0,0,4.79,1.33,4.47,4.47,0,0,0,3.08-.94,3.19,3.19,0,0,0,1.05-2.49,3,3,0,0,0-1.92-2.9,36.56,36.56,0,0,0-6.27-1.86,49.47,49.47,0,0,1-7.14-2,11.76,11.76,0,0,1-4.83-3.39,9.48,9.48,0,0,1-2-6.41,10.44,10.44,0,0,1,4-8.5q4-3.25,11.27-3.26T610.53,676.75Z" transform="translate(-33.14)" style="fill:#dadada"/><path d="M652.84,675.07a12.26,12.26,0,0,1,4.76,5.53v-7.07h11.9v39.06H657.6v-7.07a12.15,12.15,0,0,1-4.76,5.53,14.08,14.08,0,0,1-7.7,2,15.79,15.79,0,0,1-8.64-2.41,16.45,16.45,0,0,1-6-7,26.79,26.79,0,0,1,0-21.31,16.52,16.52,0,0,1,6-6.93,15.8,15.8,0,0,1,8.64-2.42A14.17,14.17,0,0,1,652.84,675.07Zm-10,11a11.6,11.6,0,0,0,0,14,8.79,8.79,0,0,0,12.39-.07,11.21,11.21,0,0,0,0-13.89,8.17,8.17,0,0,0-6.2-2.56A8,8,0,0,0,642.8,686.06Z" transform="translate(-33.14)" style="fill:#dadada"/><path d="M740.41,663.45v49.14h-12V681.86L717.8,712.59H707.44l-10.71-30.8v30.8h-12V663.45h14.63l13.37,34.23,13.09-34.23Z" transform="translate(-33.14)" style="fill:#dadada"/><path d="M781.92,695.23H754.83c.14,2.94.89,5.06,2.24,6.34a7.23,7.23,0,0,0,5.18,1.92,7.07,7.07,0,0,0,4.41-1.33,6.15,6.15,0,0,0,2.31-3.43h12.67a16.47,16.47,0,0,1-3.36,7.39,18,18,0,0,1-6.58,5.11,20.77,20.77,0,0,1-8.89,1.85,21,21,0,0,1-10.19-2.41,17.24,17.24,0,0,1-7-7,21.6,21.6,0,0,1-2.52-10.64,21.88,21.88,0,0,1,2.48-10.67,17,17,0,0,1,7-6.93,23,23,0,0,1,20.44,0,16.86,16.86,0,0,1,6.83,6.69,20,20,0,0,1,2.41,9.9A16.72,16.72,0,0,1,781.92,695.23Zm-13.83-10.81a7.6,7.6,0,0,0-5.28-1.93,7.88,7.88,0,0,0-5.46,2,8.21,8.21,0,0,0-2.45,5.74h15.26C770.21,687.63,769.52,685.7,768.09,684.42Zm4.73-20.9L756,670.73v-8.12l16.87-8.12Z" transform="translate(-33.14)" style="fill:#dadada"/><path d="M809.43,712.59l-8-11.13-6.51,11.13H781.78l13-20.37-13.44-18.69h13.44l7.91,11,6.51-11h13.16l-13.23,19.88,13.79,19.18Z" transform="translate(-33.14)" style="fill:#dadada"/><path d="M824.69,658a8.39,8.39,0,0,1,10.36,0,5.85,5.85,0,0,1,2,4.51,5.79,5.79,0,0,1-2,4.45,8.43,8.43,0,0,1-10.36,0,5.76,5.76,0,0,1-2-4.45A5.82,5.82,0,0,1,824.69,658Zm11.13,15.5v39.06h-12V673.53Z" transform="translate(-33.14)" style="fill:#dadada"/><path d="M870.89,677.21a18.49,18.49,0,0,1,6.44,11.44H864.66a6.77,6.77,0,0,0-2.31-3.92,6.87,6.87,0,0,0-4.41-1.4,6.39,6.39,0,0,0-5.18,2.49c-1.36,1.66-2,4.07-2,7.24s.67,5.59,2,7.25a6.38,6.38,0,0,0,5.18,2.48,6.81,6.81,0,0,0,4.41-1.4,6.74,6.74,0,0,0,2.31-3.92h12.67a18.52,18.52,0,0,1-6.44,11.45,19.44,19.44,0,0,1-12.67,4.16A21,21,0,0,1,848,710.67a17.24,17.24,0,0,1-7-7,21.6,21.6,0,0,1-2.52-10.64A21.88,21.88,0,0,1,841,682.39a17,17,0,0,1,7-6.93A21.17,21.17,0,0,1,858.22,673,19.39,19.39,0,0,1,870.89,677.21Z" transform="translate(-33.14)" style="fill:#dadada"/><path d="M908.72,675.46a17.69,17.69,0,0,1,7.21,7,22.84,22.84,0,0,1,0,21.28,17.65,17.65,0,0,1-7.21,7,23.69,23.69,0,0,1-20.82,0,17.63,17.63,0,0,1-7.25-7,22.91,22.91,0,0,1,0-21.28,17.67,17.67,0,0,1,7.25-7,23.6,23.6,0,0,1,20.82,0Zm-16.17,10.43q-2.34,2.49-2.34,7.17t2.34,7.14a7.67,7.67,0,0,0,5.78,2.45,7.55,7.55,0,0,0,5.74-2.45q2.31-2.44,2.31-7.14t-2.31-7.17a7.52,7.52,0,0,0-5.74-2.49A7.64,7.64,0,0,0,892.55,685.89Z" transform="translate(-33.14)" style="fill:#dadada"/></svg>