<svg id="Capa_1" data-name="Capa 1" xmlns="http://www.w3.org/2000/svg" viewBox="0 0 2187.11 413.66"><title>inviertem-logo</title><circle cx="206.83" cy="206.83" r="206.83" style="fill:#b3b2b2"/><path d="M221,52.73a6.86,6.86,0,0,1-5.91-3.41L206.83,35l-8.27,14.33a6.82,6.82,0,0,1-11.81-6.82h0L200.92,18a6.83,6.83,0,0,1,11.81,0L226.9,42.5a6.81,6.81,0,0,1-2.49,9.31,6.92,6.92,0,0,1-3.41.92Z" transform="translate(0 0.01)" style="fill:#dadada"/><path d="M45.91,227.82a6.8,6.8,0,0,1-3.41-.91L18,212.72a6.82,6.82,0,0,1,0-11.81L42.5,186.74a6.82,6.82,0,1,1,6.82,11.81L35,206.82l14.32,8.26a6.82,6.82,0,0,1-3.41,12.74Z" transform="translate(0 0.01)" style="fill:#dadada"/><path d="M206.83,399.1a6.82,6.82,0,0,1-5.91-3.41l-14.17-24.55a6.82,6.82,0,0,1,11.81-6.78l8.27,14.28,8.26-14.28a6.82,6.82,0,1,1,11.81,6.82l-14.17,24.55A6.81,6.81,0,0,1,206.83,399.1Z" transform="translate(0 0.01)" style="fill:#dadada"/><path d="M367.74,227.82a6.82,6.82,0,0,1-3.37-12.74l14.28-8.26-14.28-8.27a6.82,6.82,0,1,1,6.82-11.81l24.54,14.17a6.81,6.81,0,0,1,0,11.81l-24.54,14.17A6.67,6.67,0,0,1,367.74,227.82Z" transform="translate(0 0.01)" style="fill:#dadada"/><path d="M378,233.92l-12-2.43a6.82,6.82,0,0,0-8,5.36h0A153.37,153.37,0,0,1,236.9,358a6.82,6.82,0,0,0-5.37,8h0L234,378a6.84,6.84,0,0,0,6.69,5.49,6.69,6.69,0,0,0,1.34-.13,6.82,6.82,0,0,0,5.35-8l-1.09-5.46a167.07,167.07,0,0,0,18.46-5.61l2.14,5.15a6.81,6.81,0,1,0,12.71-4.92c0-.1-.08-.2-.12-.3l-2.13-5.14a164.26,164.26,0,0,0,17-9.1l3.1,4.64a6.82,6.82,0,0,0,11.75-6.93c-.14-.22-.28-.44-.44-.65l-3.12-4.66a167.9,167.9,0,0,0,14.9-12.24l4,4a6.82,6.82,0,1,0,9.76-9.52l-.12-.12-4-4a167.9,167.9,0,0,0,12.24-14.9L347,308.7a6.69,6.69,0,0,0,3.78,1.16,6.82,6.82,0,0,0,3.8-12.49l-4.63-3.1a168.09,168.09,0,0,0,9.09-17l5.14,2.13a6.82,6.82,0,1,0,5.52-12.47l-.3-.12-5.15-2.14a167,167,0,0,0,5.6-18.46l5.47,1.09A6.82,6.82,0,1,0,378,233.92h0Z" transform="translate(0 0.01)" style="fill:#dadada"/><path d="M181.09,360.86a6.78,6.78,0,0,0-4.34-2.89A153.37,153.37,0,0,1,55.67,236.89a6.82,6.82,0,0,0-8-5.37l-12,2.43a6.81,6.81,0,0,0,2.64,13.34l5.47-1.09a167,167,0,0,0,5.6,18.46l-5.15,2.14a6.81,6.81,0,1,0,4.92,12.71,1.88,1.88,0,0,0,.3-.12l5.14-2.13a166.11,166.11,0,0,0,9.09,17L59,297.37a6.82,6.82,0,0,0,7.58,11.31l4.66-3.11a167.77,167.77,0,0,0,12.24,14.89l-4,4a6.82,6.82,0,1,0,9.52,9.76l.13-.12,4-4a166.17,166.17,0,0,0,14.9,12.24L104.93,347a6.82,6.82,0,0,0,11.31,7.57l3.1-4.63a167.94,167.94,0,0,0,17,9.09l-2.13,5.15a6.82,6.82,0,1,0,12.6,5.22l2.14-5.15a166.86,166.86,0,0,0,18.45,5.6l-1.08,5.46a6.82,6.82,0,1,0,13.3,3c0-.12,0-.24.07-.36l2.42-12A6.81,6.81,0,0,0,181.09,360.86Z" transform="translate(0 0.01)" style="fill:#dadada"/><path d="M383.37,171.7a6.81,6.81,0,0,0-8-5.36h0l-5.47,1.09a167.51,167.51,0,0,0-5.6-18.45l5.15-2.14a6.82,6.82,0,1,0-4.92-12.72l-.3.12-5.14,2.14a165.15,165.15,0,0,0-9.1-17l4.64-3.1a6.82,6.82,0,0,0-6.93-11.75,6.75,6.75,0,0,0-.65.44l-4.66,3.11a166.34,166.34,0,0,0-12.24-14.89l4-4a6.82,6.82,0,0,0-9.65-9.64l-4,4a167.9,167.9,0,0,0-14.9-12.24l3.12-4.66a6.82,6.82,0,0,0-11.31-7.58l-3.1,4.64a164.73,164.73,0,0,0-17-9.12l2.14-5.15A6.82,6.82,0,0,0,266.8,44.2h0l-2.13,5.16a165.43,165.43,0,0,0-18.45-5.61l1.08-5.46a6.82,6.82,0,0,0-13.37-2.66l-2.42,12a6.8,6.8,0,0,0,5.33,8h0A153.37,153.37,0,0,1,358,176.75a6.83,6.83,0,0,0,8,5.36l12-2.42A6.82,6.82,0,0,0,383.37,171.7Z" transform="translate(0 0.01)" style="fill:#dadada"/><path d="M182.12,47.66l-2.42-12a6.82,6.82,0,0,0-13.35,2.65l1.09,5.46A164.79,164.79,0,0,0,149,49.36l-2.14-5.16a6.82,6.82,0,0,0-12.72,4.93l.12.29,2.13,5.15a163,163,0,0,0-17,9.09L116.27,59A6.81,6.81,0,1,0,104.53,66a6.1,6.1,0,0,0,.43.65l3.11,4.67A169.22,169.22,0,0,0,93.18,83.51l-4-4a6.82,6.82,0,0,0-9.64,9.64l4,4A169.22,169.22,0,0,0,71.3,108l-4.66-3.11a6.82,6.82,0,0,0-7.58,11.31l4.64,3.11a165,165,0,0,0-9.1,17l-5.15-2.13a6.82,6.82,0,0,0-5.22,12.59L49.39,149a167.07,167.07,0,0,0-5.61,18.46l-5.49-1.07a6.82,6.82,0,0,0-2.65,13.38h0l12,2.42a6.83,6.83,0,0,0,8-5.36A153.37,153.37,0,0,1,176.75,55.67a6.8,6.8,0,0,0,5.37-8Z" transform="translate(0 0.01)" style="fill:#dadada"/><circle cx="206.83" cy="206.83" r="139.55" style="fill:#fbcd18"/><g style="opacity:0.150000005960464"><path d="M296.37,208.18a6.82,6.82,0,0,1-6.81-6.82h0V187.23l-2,1.67a6.83,6.83,0,0,1-8.67,0l-2-1.67v14.13a6.82,6.82,0,0,1-13.64,0V172.78a6.82,6.82,0,0,1,11.15-5.27l8.85,7.27,8.89-7.27a6.83,6.83,0,0,1,11.15,5.27v28.58a6.82,6.82,0,0,1-6.82,6.82Z" transform="translate(0 0.01)" style="fill:#1e1e1c;stroke:#010101;stroke-miterlimit:10"/><circle cx="283.19" cy="157.28" r="6.82" style="fill:#1e1e1c;stroke:#010101;stroke-miterlimit:10"/></g><g style="opacity:0.150000005960464"><g id="Layer_2" data-name="Layer 2"><path d="M322.23,226.46H301.62a4.88,4.88,0,0,0-3.23,2.08l-5.93,9.12a12.59,12.59,0,0,0-1.38,3.85c-1,5.21-6.19,18.58-32.73,18.58-33.05,0-30.12-49-29.09-59.78a6,6,0,0,0-1-3.69L206,166.24c-.69-.92-2.17-2.43-3.31-2.43H190.32c-1.14,0-2.64.06-3.35-.81l-13.92-17.28a4.64,4.64,0,0,0-3.34-1.48H153.22c-1.14,0-3.18,1.44-3.18,2.57v4.12c0,1.14.2,1.14-.94,1.14H136.73a6.6,6.6,0,0,1-3.67-.81l-17.39-13.74a6.64,6.64,0,0,0-3.67-1.1H91.39a1.53,1.53,0,0,0-1.6,1.46,1.63,1.63,0,0,0,.08.58l11.31,42.16c.29,1.1-.38,2.78-1.52,2.78H91.39c-1.14,0-1.41-.11-.61.69l13.58,13.19a17.5,17.5,0,0,1,2.52,2.85l22.62,37.68a2.26,2.26,0,0,0,2.9.85l4.56-2.28a2.25,2.25,0,0,0,1.06-2.83l-27.29-67.06c-.43-1.05.14-2.68,1.28-2.68h4.13c1.14,0,2.57,1.55,3.23,2.49l38.93,58.79A16.93,16.93,0,0,1,160,229l7.11,25a7,7,0,0,0,2.26,3.23l37.84,26.51a5.39,5.39,0,0,0,3.71.77l36.66-7.66a6.15,6.15,0,0,1,3.79.64L269,288a2.77,2.77,0,0,0,3.23-.4l5.33-5.08a5.47,5.47,0,0,1,3.52-1.21h12.37a1.34,1.34,0,0,0,1.37-1.3,1.38,1.38,0,0,0-.23-.79l-2.28-4.68a3.14,3.14,0,0,1,.53-3.36l25.94-26a8.81,8.81,0,0,0,2-3.47l3.12-12.87a1.85,1.85,0,0,0-1.22-2.3A1.59,1.59,0,0,0,322.23,226.46Z" transform="translate(0 0.01)" style="fill:#1e1e1c;stroke:#010101;stroke-miterlimit:10"/></g></g><path d="M204,0V413.65c114.23,0,206.83-92.6,206.83-206.82S318.27,0,204,0Z" transform="translate(0 0.01)" style="fill:#100f0f;opacity:0.070000000298023;isolation:isolate"/><path d="M610.79,333.15a118.62,118.62,0,0,1-14.67,2.55A156,156,0,0,1,576.36,337a88.58,88.58,0,0,1-17.21-1.48,30.56,30.56,0,0,1-12.54-5.32A23,23,0,0,1,539,319.55q-2.55-6.8-2.55-17.85V77.3c3.11-.57,8.08-1.34,14.88-2.34a135.62,135.62,0,0,1,19.54-1.49A88.7,88.7,0,0,1,588.05,75a30.64,30.64,0,0,1,12.53,5.31,22.94,22.94,0,0,1,7.66,10.63q2.55,6.8,2.55,17.85Z" transform="translate(0 0.01)" style="fill:#1d1d1b"/><path d="M770.16,204q0-13.17-7.44-19.34t-20.19-6.16a67.53,67.53,0,0,0-16.78,2.12A42.37,42.37,0,0,0,711.51,187V334.42A98.84,98.84,0,0,1,698.12,337a136.87,136.87,0,0,1-18.91,1.28A99.83,99.83,0,0,1,662.42,337a28.6,28.6,0,0,1-12.54-5.1A24.46,24.46,0,0,1,642,321.46q-2.78-6.58-2.76-17.21V176.75q0-11.48,4.88-18.7a51.57,51.57,0,0,1,13.39-13.18q14.44-10.2,36.34-16.57t48.66-6.38q48,0,74,21t25.93,58.44v133A98.84,98.84,0,0,1,829,337a136.87,136.87,0,0,1-18.91,1.28A99.83,99.83,0,0,1,793.32,337a28.6,28.6,0,0,1-12.54-5.1,24.46,24.46,0,0,1-7.86-10.41q-2.77-6.58-2.76-17.21Z" transform="translate(0 0.01)" style="fill:#1d1d1b"/><path d="M998.38,329.32Q992.43,334,981,337A103.67,103.67,0,0,1,955,340q-16.57,0-28.69-4.25t-16.79-13.6q-3.82-7.23-9.14-20.19T889.16,273q-6-15.93-12.33-34.21t-12.11-36.13q-5.73-17.85-10.41-34.42t-7.65-29.33a55.13,55.13,0,0,1,37.83-14.87q14.87,0,24.43,6.16t14.24,23.16l16.58,65q4.66,19.13,8.92,34.64t6.38,24h2.12q8.07-31.46,17-69.7t16.15-75.23a67.57,67.57,0,0,1,16.36-6,78.16,78.16,0,0,1,17.64-2.12q14.87,0,25.07,6.37t10.2,22.1q0,6.81-3.18,19.77t-8.08,29.32q-4.89,16.37-11.47,34.64T1023.46,272q-6.81,17.43-13.39,32.51T998.38,329.32Z" transform="translate(0 0.01)" style="fill:#1d1d1b"/><path d="M1068.93,70.92q0-16.14,10.84-27.2t28.69-11q17.85,0,28.69,11T1148,70.92q0,16.15-10.83,27.2t-28.69,11q-17.85,0-28.69-11T1068.93,70.92Zm75.65,263.5c-3.12.57-7.72,1.34-13.81,2.34a115.11,115.11,0,0,1-18.49,1.49A99.79,99.79,0,0,1,1095.5,337a28.6,28.6,0,0,1-12.54-5.1,24.46,24.46,0,0,1-7.86-10.41q-2.77-6.58-2.77-17.21v-173q4.68-.84,13.82-2.33a115,115,0,0,1,18.48-1.49,100.07,100.07,0,0,1,16.79,1.27,28.6,28.6,0,0,1,12.54,5.1,24.55,24.55,0,0,1,7.86,10.42q2.76,6.58,2.76,17.21Z" transform="translate(0 0.01)" style="fill:#1d1d1b"/><path d="M1278.46,341.65a149.19,149.19,0,0,1-46.54-7,105.56,105.56,0,0,1-37.4-21,97.46,97.46,0,0,1-25.07-35.28q-9.15-21.24-9.14-49.72,0-28,9.14-48.24t24-33.15a96,96,0,0,1,34-19.12,126.67,126.67,0,0,1,39.1-6.17q22.51,0,41,6.8a98.85,98.85,0,0,1,31.88,18.7,83.38,83.38,0,0,1,20.82,28.48,87.18,87.18,0,0,1,7.44,36.12q0,14.46-8.08,22.1t-22.52,9.78l-105,15.72q4.68,14,19.13,21t33.15,7a118.51,118.51,0,0,0,32.94-4.46q15.51-4.45,25.28-10.41a35.63,35.63,0,0,1,11.48,11.9,30.53,30.53,0,0,1,4.67,16.15q0,19.13-17.85,28.47a94.6,94.6,0,0,1-30.6,9.78A215.48,215.48,0,0,1,1278.46,341.65Zm-11.9-167a42.21,42.21,0,0,0-17.64,3.4,35.5,35.5,0,0,0-12.11,8.72,36,36,0,0,0-7,11.9A48.79,48.79,0,0,0,1227,212l72.68-11.9q-1.28-8.49-9.35-17T1266.56,174.62Z" transform="translate(0 0.01)" style="fill:#1d1d1b"/><path d="M1453.56,334.42a98.84,98.84,0,0,1-13.39,2.55,136.87,136.87,0,0,1-18.91,1.28,99.83,99.83,0,0,1-16.79-1.28,28.6,28.6,0,0,1-12.54-5.1,24.46,24.46,0,0,1-7.86-10.41q-2.77-6.58-2.76-17.21V176.75a36.25,36.25,0,0,1,3.61-16.79,39.49,39.49,0,0,1,10.41-12.54,75,75,0,0,1,16.79-10,172.38,172.38,0,0,1,21.46-7.87,183.61,183.61,0,0,1,23.8-5.31,161.16,161.16,0,0,1,24.65-1.91q20.4,0,32.3,7.86t11.9,25.71a41,41,0,0,1-1.7,11.69,52.79,52.79,0,0,1-4.25,10.41q-8.92,0-18.27.85t-18.28,2.55q-8.93,1.71-16.79,3.62a73.37,73.37,0,0,0-13.38,4.46Z" transform="translate(0 0.01)" style="fill:#1d1d1b"/><path d="M1607,263.87q0,11.06,7,15.73t19.76,4.67a85.24,85.24,0,0,0,13.18-1.06,73.63,73.63,0,0,0,11.9-2.76,52.56,52.56,0,0,1,6.59,10.41,31.67,31.67,0,0,1,2.76,13.81q0,16.15-12.11,26.35t-42.72,10.2q-37.39,0-57.58-17T1535.58,269V87.07c3.11-.85,7.58-1.76,13.39-2.76a109.84,109.84,0,0,1,18.49-1.49q18.69,0,29.11,6.59T1607,117.25v27.2h55.68a73.83,73.83,0,0,1,4.88,11.69,48.73,48.73,0,0,1,2.34,15.51q0,14.88-6.59,21.46t-17.63,6.59H1607Z" transform="translate(0 0.01)" style="fill:#1d1d1b"/><path d="M1790.15,341.65a149.08,149.08,0,0,1-46.53-7,105.48,105.48,0,0,1-37.4-21,97.36,97.36,0,0,1-25.08-35.28Q1672,257.08,1672,228.6q0-28,9.14-48.24t24-33.15a96.06,96.06,0,0,1,34-19.12,126.67,126.67,0,0,1,39.1-6.17q22.53,0,41,6.8a98.81,98.81,0,0,1,31.87,18.7A83.28,83.28,0,0,1,1872,175.9,87.34,87.34,0,0,1,1879.4,212q0,14.46-8.07,22.1t-22.53,9.78l-105,15.72q4.67,14,19.12,21t33.15,7a118.41,118.41,0,0,0,32.94-4.46q15.51-4.45,25.29-10.41a35.61,35.61,0,0,1,11.47,11.9,30.45,30.45,0,0,1,4.68,16.15q0,19.13-17.85,28.47a94.6,94.6,0,0,1-30.6,9.78A215.61,215.61,0,0,1,1790.15,341.65Zm-11.9-167a42.17,42.17,0,0,0-17.63,3.4,35.64,35.64,0,0,0-12.12,8.72,36.14,36.14,0,0,0-7,11.9,48.77,48.77,0,0,0-2.76,13.38l72.67-11.9q-1.28-8.49-9.35-17T1778.25,174.62Z" transform="translate(0 0.01)" style="fill:#1d1d1b"/><path d="M2073.63,271.52a40.82,40.82,0,0,1-14.24,7.44,66.58,66.58,0,0,1-20.18,2.76q-15.3,0-25.29-3.82t-13-13.18q-11.91-37.38-19.55-60.56t-11.9-40.59h-2.13q-1.28,25.08-1.91,45.69t-.85,40.16q-.22,19.56-.85,39.53t-1.91,44.2a76.73,76.73,0,0,1-14.45,3.61,108.59,108.59,0,0,1-17.85,1.49q-18.7,0-29.12-5.95T1890,310.62l12.33-216.75q3.39-5.52,14.87-11.9t32.3-6.37q22.53,0,35.28,7t18.7,22.74q3.83,10.2,8.28,23.37t8.93,27.2q4.46,14,8.71,27.84t7.65,24.86h2.13q10.2-35.7,20.4-69.06t18.7-55.89a68.47,68.47,0,0,1,16.36-5.73A97.9,97.9,0,0,1,2117,75.6q20.82,0,34,6.16t15.3,17.64q1.69,8.5,3.61,26.14t4,39.73q2.13,22.11,4.25,46.75t4,47.39q1.91,22.74,3.19,41.65t1.7,29.11a55.57,55.57,0,0,1-15.09,6.17,88.11,88.11,0,0,1-20.19,1.91q-16.15,0-27.2-5.53t-11.9-21.67q-2.55-46.32-3.19-83.3t-1.91-62.05h-2.12q-4.26,16.58-12.33,41.65T2073.63,271.52Z" transform="translate(0 0.01)" style="fill:#fbcd18"/></svg>