<svg id="Capa_1" data-name="Capa 1" xmlns="http://www.w3.org/2000/svg" viewBox="0 0 413.65 413.66"><defs><style>.cls-1{fill:#b3b2b2;}.cls-2{fill:#dadada;}.cls-3{fill:#fbcd18;}.cls-4{opacity:0.15;}.cls-5{fill:#1e1e1c;stroke:#010101;stroke-miterlimit:10;}.cls-6{fill:#100f0f;opacity:0.07;isolation:isolate;}</style></defs><title>inviertm-iso</title><circle class="cls-1" cx="206.83" cy="206.83" r="206.83"/><path class="cls-2" d="M221,52.73a6.84,6.84,0,0,1-5.91-3.41L206.83,35l-8.27,14.32a6.82,6.82,0,1,1-11.81-6.82h0L200.92,18a6.82,6.82,0,0,1,11.81,0L226.9,42.5A6.81,6.81,0,0,1,221,52.73Z"/><path class="cls-2" d="M45.91,227.83a6.8,6.8,0,0,1-3.41-.91L18,212.73a6.82,6.82,0,0,1,0-11.81L42.5,186.75a6.82,6.82,0,1,1,6.82,11.81L35,206.83l14.32,8.26a6.82,6.82,0,0,1-3.41,12.74Z"/><path class="cls-2" d="M206.83,399.11a6.82,6.82,0,0,1-5.91-3.41l-14.17-24.55a6.82,6.82,0,0,1,11.81-6.78l8.27,14.28,8.26-14.28a6.82,6.82,0,1,1,11.81,6.82l-14.17,24.55A6.83,6.83,0,0,1,206.83,399.11Z"/><path class="cls-2" d="M367.74,227.83a6.82,6.82,0,0,1-3.37-12.74l14.28-8.26-14.28-8.27a6.82,6.82,0,1,1,6.82-11.81l24.54,14.17a6.82,6.82,0,0,1,0,11.81L371.19,226.9A6.87,6.87,0,0,1,367.74,227.83Z"/><path class="cls-2" d="M378,233.92l-12-2.42a6.82,6.82,0,0,0-8,5.36h0A153.37,153.37,0,0,1,236.9,358a6.82,6.82,0,0,0-5.37,8h0L234,378a6.84,6.84,0,0,0,6.69,5.5,7.51,7.51,0,0,0,1.34-.13,6.82,6.82,0,0,0,5.35-8l-1.09-5.47a167,167,0,0,0,18.46-5.6l2.14,5.15a6.81,6.81,0,1,0,12.71-4.92c0-.1-.08-.2-.12-.3l-2.13-5.14a166.19,166.19,0,0,0,17-9.1l3.1,4.64a6.82,6.82,0,0,0,11.75-6.93c-.14-.22-.28-.44-.44-.65l-3.12-4.66a167.9,167.9,0,0,0,14.9-12.24l4,4a6.82,6.82,0,1,0,9.76-9.52l-.12-.13-4-4a169.36,169.36,0,0,0,12.24-14.9l4.66,3.11a6.77,6.77,0,0,0,3.78,1.16,6.82,6.82,0,0,0,3.8-12.49l-4.63-3.1a168.09,168.09,0,0,0,9.09-17l5.14,2.13a6.82,6.82,0,1,0,5.52-12.47l-.3-.13-5.15-2.13a167,167,0,0,0,5.6-18.46l5.47,1.09A6.82,6.82,0,1,0,378,233.92h0Z"/><path class="cls-2" d="M181.09,360.87a6.71,6.71,0,0,0-4.34-2.89A153.38,153.38,0,0,1,55.67,236.9a6.81,6.81,0,0,0-8-5.37l-12,2.42a6.82,6.82,0,0,0,2.64,13.35l5.47-1.09a167,167,0,0,0,5.6,18.46l-5.15,2.13a6.82,6.82,0,1,0,4.92,12.72l.3-.12,5.14-2.13a164.92,164.92,0,0,0,9.09,17L59,297.38a6.82,6.82,0,0,0,7.58,11.31l4.66-3.11a169.22,169.22,0,0,0,12.24,14.89l-4,4a6.82,6.82,0,1,0,9.52,9.76l.13-.12,4-4a167.9,167.9,0,0,0,14.9,12.24L104.93,347a6.82,6.82,0,0,0,11.31,7.58l3.1-4.64a166,166,0,0,0,17,9.1l-2.13,5.15a6.82,6.82,0,1,0,12.6,5.22l2.14-5.16a166.91,166.91,0,0,0,18.45,5.61l-1.08,5.46a6.82,6.82,0,1,0,13.3,3c0-.12,0-.24.07-.36l2.42-12A6.81,6.81,0,0,0,181.09,360.87Z"/><path class="cls-2" d="M383.37,171.71a6.81,6.81,0,0,0-8-5.36h0l-5.47,1.09a166.86,166.86,0,0,0-5.6-18.45l5.15-2.14a6.82,6.82,0,1,0-4.92-12.72l-.3.12-5.14,2.13a165,165,0,0,0-9.1-17l4.64-3.11a6.82,6.82,0,1,0-6.93-11.74c-.22.13-.44.28-.65.43l-4.66,3.11a169.22,169.22,0,0,0-12.24-14.89l4-4a6.82,6.82,0,0,0-9.65-9.65l-4,4A167.9,167.9,0,0,0,305.6,71.3l3.12-4.66a6.82,6.82,0,0,0-11.31-7.58l-3.1,4.64a164.81,164.81,0,0,0-17-9.13l2.14-5.14a6.82,6.82,0,0,0-12.61-5.22h0l-2.13,5.15a167.51,167.51,0,0,0-18.45-5.6l1.08-5.47a6.82,6.82,0,0,0-13.37-2.65l-2.42,12a6.8,6.8,0,0,0,5.33,8h0A153.38,153.38,0,0,1,358,176.75a6.83,6.83,0,0,0,8,5.37l12-2.42A6.82,6.82,0,0,0,383.37,171.71Z"/><path class="cls-2" d="M182.12,47.67l-2.42-12a6.82,6.82,0,0,0-13.35,2.64l1.09,5.47A166.86,166.86,0,0,0,149,49.36l-2.14-5.15a6.82,6.82,0,1,0-12.72,4.92l.12.3,2.13,5.14a165,165,0,0,0-17,9.1L116.27,59A6.82,6.82,0,1,0,104.53,66c.13.22.28.44.43.65l3.11,4.66A172.86,172.86,0,0,0,93.18,83.51l-4-4a6.82,6.82,0,0,0-9.64,9.64l4,4A169.22,169.22,0,0,0,71.3,108.05l-4.66-3.11a6.82,6.82,0,0,0-7.58,11.31l4.64,3.1a166.19,166.19,0,0,0-9.1,17l-5.15-2.13a6.82,6.82,0,0,0-5.22,12.59L49.39,149a167.9,167.9,0,0,0-5.61,18.47l-5.49-1.07a6.82,6.82,0,0,0-2.65,13.38h0l12,2.42a6.83,6.83,0,0,0,8-5.36A153.37,153.37,0,0,1,176.75,55.67a6.79,6.79,0,0,0,5.37-8Z"/><circle class="cls-3" cx="206.83" cy="206.83" r="139.55"/><g class="cls-4"><path class="cls-5" d="M296.37,208.18a6.81,6.81,0,0,1-6.81-6.82h0V187.23l-2,1.68a6.85,6.85,0,0,1-8.67,0l-2-1.68v14.13a6.82,6.82,0,0,1-13.64,0V172.79a6.82,6.82,0,0,1,11.15-5.27l8.85,7.27,8.89-7.27a6.83,6.83,0,0,1,11.15,5.27v28.57a6.82,6.82,0,0,1-6.82,6.82Z"/><circle class="cls-5" cx="283.19" cy="157.28" r="6.82"/></g><g class="cls-4"><g id="Layer_2" data-name="Layer 2"><path class="cls-5" d="M322.23,226.47H301.62a4.84,4.84,0,0,0-3.23,2.08l-5.93,9.12a12.59,12.59,0,0,0-1.38,3.85c-1,5.21-6.19,18.58-32.73,18.58-33.05,0-30.12-49.05-29.09-59.79a6,6,0,0,0-1-3.68L206,166.24c-.69-.91-2.17-2.42-3.31-2.42H190.32c-1.14,0-2.64.06-3.35-.81l-13.92-17.29a4.68,4.68,0,0,0-3.34-1.48H153.22c-1.14,0-3.18,1.44-3.18,2.58v4.12c0,1.14.2,1.13-.94,1.13H136.73a6.6,6.6,0,0,1-3.67-.8l-17.39-13.74a6.65,6.65,0,0,0-3.67-1.11H91.39a1.53,1.53,0,0,0-1.6,1.47,1.66,1.66,0,0,0,.08.58l11.31,42.15c.29,1.1-.38,2.79-1.52,2.79H91.39c-1.14,0-1.41-.11-.61.69l13.58,13.19a17.09,17.09,0,0,1,2.52,2.85l22.62,37.68a2.25,2.25,0,0,0,2.9.84l4.56-2.27a2.26,2.26,0,0,0,1.06-2.83L110.73,166.5c-.43-1.06.14-2.68,1.28-2.68h4.13c1.14,0,2.57,1.54,3.23,2.49L158.3,225.1A16.86,16.86,0,0,1,160,229l7.11,25a7,7,0,0,0,2.26,3.24l37.84,26.51a5.44,5.44,0,0,0,3.71.77l36.66-7.66a6.08,6.08,0,0,1,3.79.64L269,288a2.78,2.78,0,0,0,3.23-.4l5.33-5.08a5.54,5.54,0,0,1,3.52-1.22h12.37a1.32,1.32,0,0,0,1.37-1.29,1.38,1.38,0,0,0-.23-.79l-2.28-4.68a3.16,3.16,0,0,1,.53-3.37l25.94-26a8.85,8.85,0,0,0,2-3.48l3.12-12.87a1.84,1.84,0,0,0-1.22-2.29A1.59,1.59,0,0,0,322.23,226.47Z"/></g></g><path class="cls-6" d="M204,0V413.66c114.23,0,206.83-92.61,206.83-206.83S318.27,0,204,0Z"/></svg>