<?xml version="1.0" encoding="utf-8"?>
<!-- Generator: Adobe Illustrator 24.0.0, SVG Export Plug-In . SVG Version: 6.00 Build 0)  -->
<svg version="1.1" id="Layer_1" xmlns="http://www.w3.org/2000/svg" xmlns:xlink="http://www.w3.org/1999/xlink" x="0px" y="0px"
	 viewBox="0 0 1968.6 512" style="enable-background:new 0 0 1968.6 512;" xml:space="preserve">
<style type="text/css">
	.st0{fill:#C6C6C6;}
	.st1{fill:#E3E3E3;}
	.st2{fill:#FBCD18;}
	.st3{opacity:0.15;}
	.st4{fill:#1D1D1B;stroke:#000000;stroke-miterlimit:10;}
	.st5{fill:none;}
	.st6{font-family:'Baloo';}
	.st7{font-size:300px;}
	.st8{font-size:120px;}
</style>
<title>inviertm-iso</title>
<circle class="st0" cx="256" cy="256" r="256"/>
<g>
	<path class="st1" d="M273.5,65.3c-3,0-5.8-1.6-7.3-4.2L256,43.3L245.8,61c-2.3,4-7.5,5.4-11.5,3.1s-5.4-7.5-3.1-11.5l0,0l17.5-30.4
		c2.3-4,7.5-5.4,11.5-3.1c1.3,0.7,2.4,1.8,3.1,3.1l17.5,30.4c2.3,4,0.9,9.2-3.1,11.5C276.5,64.9,275,65.3,273.5,65.3L273.5,65.3z"/>
	<path class="st1" d="M56.8,282c-1.5,0-2.9-0.4-4.2-1.1l-30.4-17.6c-4-2.3-5.4-7.5-3.1-11.5c0.7-1.3,1.8-2.4,3.1-3.1l30.4-17.5
		c4-2.3,9.2-0.9,11.5,3.1s0.9,9.2-3.1,11.5L43.3,256L61,266.2c4,2.3,5.5,7.5,3.1,11.5C62.7,280.4,59.9,282,56.8,282z"/>
	<path class="st1" d="M256,494c-3,0-5.8-1.6-7.3-4.2l-17.5-30.4c-2.1-4.2-0.4-9.2,3.7-11.3c3.9-1.9,8.6-0.7,10.9,2.9l10.2,17.7
		l10.2-17.7c2.3-4,7.5-5.4,11.5-3.1s5.4,7.5,3.1,11.5l-17.5,30.4C261.8,492.4,259,494,256,494z"/>
	<path class="st1" d="M455.2,282c-4.7,0-8.4-3.8-8.4-8.4c0-3,1.6-5.8,4.3-7.3l17.7-10.2L451,245.8c-4-2.3-5.4-7.5-3.1-11.5
		s7.5-5.4,11.5-3.1l30.4,17.5c4,2.3,5.4,7.5,3.1,11.5c-0.7,1.3-1.8,2.4-3.1,3.1l-30.4,17.5C458.1,281.6,456.7,282,455.2,282z"/>
	<path class="st1" d="M467.9,289.5l-14.9-3c-4.6-0.9-9,2.1-9.9,6.6c0,0,0,0,0,0C428.3,369,369,428.3,293.2,443.1
		c-4.6,0.9-7.5,5.3-6.6,9.9c0,0,0,0,0,0l3,14.9c0.8,3.9,4.2,6.8,8.3,6.8c0.6,0,1.1-0.1,1.7-0.2c4.6-0.9,7.5-5.4,6.6-9.9l-1.4-6.8
		c7.7-1.9,15.4-4.2,22.9-6.9l2.6,6.4c1.7,4.3,6.6,6.5,10.9,4.8c4.3-1.7,6.5-6.6,4.8-10.9c0-0.1-0.1-0.2-0.2-0.4l-2.6-6.4
		c7.2-3.3,14.3-7.1,21-11.3l3.8,5.7c2.4,4,7.5,5.4,11.6,3c4-2.4,5.4-7.5,3-11.6c-0.2-0.3-0.3-0.6-0.5-0.8l-3.9-5.8
		c6.4-4.7,12.6-9.7,18.4-15.1l4.9,4.9c3.3,3.3,8.6,3.4,11.9,0.1s3.4-8.6,0.1-11.9c0-0.1-0.1-0.1-0.2-0.2l-4.9-4.9
		c5.4-5.9,10.5-12,15.1-18.4l5.8,3.9c1.4,0.9,3,1.4,4.7,1.4c4.7,0,8.4-3.8,8.5-8.4c0-2.8-1.4-5.5-3.8-7l-5.7-3.8
		c4.2-6.8,7.9-13.8,11.3-21.1l6.4,2.6c4.3,1.9,9.2,0,11.1-4.3c1.9-4.3,0-9.2-4.3-11.1c-0.1-0.1-0.2-0.1-0.4-0.2l-6.4-2.6
		c2.8-7.5,5.1-15.1,6.9-22.9l6.8,1.4c4.6,0.9,9-2.1,9.9-6.6S472.5,290.5,467.9,289.5L467.9,289.5L467.9,289.5z"/>
	<path class="st1" d="M224.1,446.7c-1.2-1.9-3.2-3.2-5.4-3.6C143,428.3,83.7,369,68.9,293.2c-0.9-4.6-5.3-7.5-9.9-6.6l-14.9,3
		c-4.5,1.2-7.2,5.8-6,10.3c1.1,4.1,5,6.7,9.2,6.2l6.8-1.4c1.9,7.7,4.2,15.4,6.9,22.9l-6.4,2.6c-4.3,1.7-6.5,6.6-4.8,10.9
		s6.6,6.5,10.9,4.8c0.1,0,0.2-0.1,0.4-0.2l6.4-2.6c3.3,7.2,7.1,14.3,11.3,21l-5.7,3.8c-3.7,2.8-4.4,8.1-1.6,11.8
		c2.6,3.4,7.3,4.4,11,2.2l5.8-3.9c4.7,6.4,9.7,12.6,15.2,18.4l-4.9,4.9c-3.3,3.3-3.4,8.6-0.1,11.9c3.3,3.3,8.6,3.4,11.9,0.1
		c0.1,0,0.1-0.1,0.2-0.2l4.9-4.9c5.9,5.4,12,10.5,18.4,15.1l-3.9,5.8c-2.4,4-1,9.2,3,11.6c3.7,2.2,8.4,1.2,11-2.2l3.8-5.7
		c6.8,4.2,13.8,7.9,21.1,11.3l-2.6,6.4c-1.8,4.3,0.3,9.2,4.6,11s9.2-0.3,11-4.6l2.6-6.4c7.5,2.7,15.1,5.1,22.8,6.9l-1.3,6.8
		c-1,4.5,1.8,9.1,6.4,10.1s9.1-1.8,10.1-6.4c0-0.1,0.1-0.3,0.1-0.4l3-14.9C225.8,450.8,225.4,448.5,224.1,446.7z"/>
	<path class="st1" d="M474.5,212.5c-0.9-4.6-5.3-7.5-9.9-6.6c0,0,0,0,0,0l-6.8,1.4c-1.9-7.7-4.2-15.4-6.9-22.8l6.4-2.6
		c4.3-1.7,6.5-6.6,4.8-10.9s-6.6-6.5-10.9-4.8c-0.1,0-0.2,0.1-0.4,0.2l-6.4,2.6c-3.3-7.2-7.1-14.3-11.3-21.1l5.7-3.8
		c4-2.4,5.4-7.5,3-11.6c-2.4-4-7.5-5.4-11.6-3c-0.3,0.2-0.6,0.3-0.8,0.5l-5.8,3.9c-4.7-6.4-9.7-12.6-15.1-18.4l4.9-4.9
		c3.3-3.3,3.3-8.6,0-11.9s-8.6-3.3-11.9,0l-4.9,4.9c-5.9-5.4-12-10.5-18.4-15.2l3.9-5.8c2.4-4,1-9.2-3-11.6c-3.7-2.2-8.4-1.2-11,2.2
		l-3.8,5.7c-6.8-4.2-13.8-7.9-21.1-11.3l2.6-6.4c1.8-4.3-0.3-9.2-4.6-11s-9.2,0.3-11,4.6l0,0l-2.6,6.4c-7.5-2.7-15.1-5.1-22.8-6.9
		l1.3-6.8c0.8-4.6-2.3-9-6.9-9.7c-4.4-0.8-8.7,2.1-9.7,6.5l-3,14.9c-0.9,4.6,2,9,6.6,9.9c0,0,0,0,0,0
		C369,83.7,428.3,143,443.1,218.8c0.9,4.6,5.4,7.5,9.9,6.6l14.9-3C472.5,221.5,475.4,217.1,474.5,212.5z"/>
	<path class="st1" d="M225.4,59l-3-14.9c-1.2-4.5-5.8-7.2-10.3-6c-4.1,1.1-6.7,5-6.2,9.2l1.4,6.8c-7.7,1.9-15.4,4.2-22.8,6.9
		l-2.6-6.4c-1.7-4.3-6.6-6.5-10.9-4.8c-4.3,1.7-6.5,6.6-4.8,10.9c0,0.1,0.1,0.2,0.2,0.4l2.6,6.4c-7.2,3.3-14.3,7.1-21.1,11.3
		l-3.8-5.7c-2.4-4-7.5-5.4-11.6-3c-4,2.4-5.4,7.5-3,11.6c0.2,0.3,0.3,0.6,0.5,0.8l3.9,5.8c-6.4,4.7-12.6,9.8-18.4,15.2l-4.9-4.9
		c-3.4-3.2-8.7-3-11.9,0.4c-3,3.2-3,8.3,0,11.6l4.9,4.9c-5.4,5.8-10.5,12-15.2,18.4l-5.8-3.9c-4-2.4-9.2-1-11.6,3
		c-2.2,3.7-1.2,8.4,2.2,11l5.7,3.8c-4.2,6.8-7.9,13.8-11.3,21.1l-6.4-2.6c-4.3-1.7-9.2,0.5-10.9,4.8c-1.6,4.2,0.3,8.9,4.5,10.8
		l6.4,2.6c-2.7,7.5-5.1,15.1-6.9,22.9l-6.8-1.3c-4.6-0.9-9,2.1-9.9,6.6c-0.9,4.6,2.1,9,6.6,9.9l0,0l14.9,3c4.6,0.9,9-2.1,9.9-6.6
		C83.7,143,143,83.7,218.8,68.9C223.3,68,226.3,63.6,225.4,59C225.4,59,225.4,59,225.4,59z"/>
</g>
<circle class="st2" cx="256" cy="256" r="172.7"/>
<g class="st3">
	<g id="Layer_2">
		<path class="st4" d="M398.8,280.3h-25.5c-1.4,0-3.2,1.4-4,2.6l-7.3,11.3c-0.8,1.5-1.4,3.1-1.7,4.8c-1.3,6.5-7.7,23-40.5,23
			c-40.9,0-37.3-60.7-36-74c0.1-1.6-0.4-3.2-1.3-4.6L255,205.8c-0.9-1.1-2.7-3-4.1-3h-15.3c-1.4,0-3.3,0.1-4.1-1l-17.2-21.4
			c-1.1-1.1-2.6-1.8-4.1-1.8h-20.4c-1.4,0-3.9,1.8-3.9,3.2v5.1c0,1.4,0.3,1.4-1.2,1.4h-15.3c-1.4,0-3.4-0.1-4.5-1l-21.5-17
			c-1.3-0.9-2.9-1.4-4.5-1.4h-25.5c-1,0-1.9,0.8-2,1.8c0,0.2,0,0.5,0.1,0.7l14,52.2c0.4,1.4-0.5,3.4-1.9,3.4h-10.2
			c-1.4,0-1.8-0.1-0.8,0.9l16.8,16.3c1.2,1.1,2.2,2.2,3.1,3.5l28,46.6c0.8,1.2,2.3,1.7,3.6,1l5.6-2.8c1.3-0.7,1.8-2.2,1.3-3.5
			l-33.8-83c-0.5-1.3,0.2-3.3,1.6-3.3h5.1c1.4,0,3.2,1.9,4,3.1l48.2,72.8c0.9,1.5,1.6,3.1,2.1,4.8l8.8,30.9c0.5,1.6,1.5,3,2.8,4
			l46.8,32.8c1.4,0.9,3,1.2,4.6,1l45.4-9.5c1.6-0.2,3.3,0,4.7,0.8l21.8,13c1.3,0.7,2.9,0.5,4-0.5l6.6-6.3c1.2-1,2.8-1.5,4.4-1.5
			h15.3c0.9,0,1.7-0.7,1.7-1.6c0-0.3-0.1-0.7-0.3-1l-2.8-5.8c-0.6-1.4-0.4-3,0.7-4.2l32.1-32.1c1.1-1.2,2-2.7,2.4-4.3l3.9-15.9
			c0.4-1.2-0.3-2.5-1.5-2.8C399.2,280.4,399,280.3,398.8,280.3z"/>
	</g>
</g>
<rect x="613.3" y="107.2" class="st5" width="1355.3" height="349.6"/>
<text transform="matrix(1 0 0 1 627.797 305.4897)"><tspan x="0" y="0" class="st6 st7">Invierte</tspan><tspan x="1087.2" y="0" class="st2 st6 st7">M</tspan><tspan x="43.9" y="120" class="st0 st6 st8">Invirtiendo por México</tspan></text>
</svg>
