<svg id="Layer_1" data-name="Layer 1" xmlns="http://www.w3.org/2000/svg" viewBox="0 0 1966.44 512.01"><defs><style>.cls-1,.cls-12{fill:#b2b2b2;}.cls-2{fill:#dadada;}.cls-3{fill:#fbcd18;}.cls-4{opacity:0.15;}.cls-5,.cls-7{fill:#1d1d1b;}.cls-10,.cls-11,.cls-5,.cls-8,.cls-9{stroke:#000;stroke-miterlimit:10;}.cls-6{fill:#100f0e;opacity:0.07;isolation:isolate;}.cls-7{font-size:300px;font-family:Baloo;}.cls-9{letter-spacing:-0.01em;}.cls-10{letter-spacing:-0.01em;}.cls-11{letter-spacing:-0.01em;}.cls-12{font-size:120px;}.cls-13{letter-spacing:-0.06em;}.cls-14{letter-spacing:-0.01em;}.cls-15{letter-spacing:0em;}.cls-16{letter-spacing:0em;}.cls-17{letter-spacing:-0.01em;}</style></defs><title>logotype</title><circle class="cls-1" cx="256" cy="256" r="256"/><path class="cls-2" d="M273.55,65.27a8.46,8.46,0,0,1-7.32-4.22L256,43.32,245.77,61.05a8.44,8.44,0,1,1-14.62-8.44h0l17.54-30.38a8.44,8.44,0,0,1,14.62,0l17.54,30.38a8.44,8.44,0,0,1-7.3,12.66Z"/><path class="cls-2" d="M56.82,282a8.41,8.41,0,0,1-4.21-1.13L22.22,263.31a8.44,8.44,0,0,1,0-14.62l30.39-17.54a8.44,8.44,0,1,1,8.44,14.62L43.32,256l17.73,10.23A8.44,8.44,0,0,1,56.82,282Z"/><path class="cls-2" d="M256,494a8.44,8.44,0,0,1-7.31-4.22l-17.54-30.39A8.44,8.44,0,0,1,245.77,451L256,468.68,266.23,451a8.44,8.44,0,0,1,14.62,8.44l-17.54,30.39A8.44,8.44,0,0,1,256,494Z"/><path class="cls-2" d="M455.18,282A8.44,8.44,0,0,1,451,266.23L468.68,256,451,245.77a8.44,8.44,0,0,1,8.44-14.62l30.38,17.54a8.44,8.44,0,0,1,0,14.62l-30.38,17.54A8.38,8.38,0,0,1,455.18,282Z"/><path class="cls-2" d="M467.89,289.54l-14.88-3a8.44,8.44,0,0,0-9.92,6.64h0A189.81,189.81,0,0,1,293.22,443.09a8.44,8.44,0,0,0-6.64,9.92h0l3,14.88a8.44,8.44,0,1,0,16.56-3.29l-1.35-6.76a207.34,207.34,0,0,0,22.85-6.94l2.64,6.38a8.44,8.44,0,0,0,15.74-6.1l-.15-.36-2.64-6.37a204.31,204.31,0,0,0,21-11.26l3.84,5.74a8.44,8.44,0,1,0,14.54-8.57,7.13,7.13,0,0,0-.54-.81l-3.86-5.77a207.26,207.26,0,0,0,18.44-15.15l4.92,4.92a8.44,8.44,0,1,0,12.08-11.79l-.15-.15-4.91-4.91a212.3,212.3,0,0,0,15.15-18.44l5.76,3.85a8.44,8.44,0,1,0,9.38-14l-5.73-3.83a205.42,205.42,0,0,0,11.25-21.06l6.37,2.64a8.44,8.44,0,0,0,6.82-15.44l-.36-.15-6.38-2.64a207.34,207.34,0,0,0,6.94-22.85l6.76,1.35a8.44,8.44,0,0,0,3.3-16.56h0Z"/><path class="cls-2" d="M224.15,446.67a8.38,8.38,0,0,0-5.37-3.58A189.83,189.83,0,0,1,68.91,293.22,8.44,8.44,0,0,0,59,286.58l-14.88,3A8.44,8.44,0,0,0,47.4,306.1l6.76-1.35A207.34,207.34,0,0,0,61.1,327.6l-6.38,2.64A8.44,8.44,0,0,0,60.82,346l.36-.15,6.37-2.64A204.23,204.23,0,0,0,78.8,364.24l-5.73,3.84a8.44,8.44,0,0,0,9.38,14l5.77-3.85a205.7,205.7,0,0,0,15.15,18.43l-4.92,4.92a8.44,8.44,0,1,0,11.79,12.08l.15-.15,4.91-4.91a207.26,207.26,0,0,0,18.44,15.15l-3.86,5.77a8.44,8.44,0,0,0,14,9.38l3.83-5.74a209.33,209.33,0,0,0,21,11.26l-2.64,6.37a8.44,8.44,0,1,0,15.6,6.46l2.64-6.38a206.52,206.52,0,0,0,22.84,6.94l-1.34,6.76a8.44,8.44,0,1,0,16.46,3.74l.09-.45,3-14.88A8.42,8.42,0,0,0,224.15,446.67Z"/><path class="cls-2" d="M474.52,212.53a8.42,8.42,0,0,0-9.91-6.63h0l-6.76,1.35a206.52,206.52,0,0,0-6.94-22.84l6.38-2.65a8.44,8.44,0,1,0-6.1-15.74l-.36.15-6.37,2.64a204.31,204.31,0,0,0-11.26-21.05l5.74-3.84a8.44,8.44,0,1,0-8.57-14.54,7.13,7.13,0,0,0-.81.54l-5.77,3.85a207.12,207.12,0,0,0-15.15-18.43l4.92-4.92a8.44,8.44,0,1,0-11.94-11.94l-4.91,4.92a207.26,207.26,0,0,0-18.44-15.15l3.86-5.77a8.44,8.44,0,0,0-14-9.38l-3.83,5.74A206.2,206.2,0,0,0,343.2,67.55l2.64-6.37a8.44,8.44,0,0,0-15.6-6.46h0L327.6,61.1a206.52,206.52,0,0,0-22.84-6.94l1.34-6.76a8.44,8.44,0,0,0-16.55-3.29l-3,14.88a8.42,8.42,0,0,0,6.6,9.91h0a189.83,189.83,0,0,1,149.9,149.87,8.47,8.47,0,0,0,9.93,6.64l14.88-3A8.44,8.44,0,0,0,474.52,212.53Z"/><path class="cls-2" d="M225.42,59l-3-14.88A8.44,8.44,0,0,0,205.9,47.4l1.35,6.76a206.52,206.52,0,0,0-22.84,6.94l-2.65-6.38A8.44,8.44,0,0,0,166,60.82l.15.36,2.64,6.37a204.31,204.31,0,0,0-21.05,11.26l-3.84-5.74a8.44,8.44,0,1,0-14.54,8.57,7.13,7.13,0,0,0,.54.81l3.85,5.77a210.67,210.67,0,0,0-18.43,15.15l-4.92-4.91a8.44,8.44,0,0,0-11.93,11.93l4.91,4.92a208.88,208.88,0,0,0-15.15,18.43l-5.77-3.85a8.44,8.44,0,0,0-9.38,14l5.74,3.84a204.31,204.31,0,0,0-11.26,21.05l-6.37-2.64a8.44,8.44,0,0,0-6.46,15.59l6.38,2.64a207.34,207.34,0,0,0-6.94,22.85L47.4,205.9a8.44,8.44,0,0,0-3.29,16.56h0l14.88,3a8.47,8.47,0,0,0,9.93-6.64A189.83,189.83,0,0,1,218.78,68.91,8.43,8.43,0,0,0,225.43,59Z"/><circle class="cls-3" cx="256" cy="256" r="172.73"/><g class="cls-4"><path class="cls-5" d="M366.84,257.68a8.44,8.44,0,0,1-8.44-8.44h0V231.75l-2.51,2.07a8.46,8.46,0,0,1-10.73,0l-2.51-2.07v17.49a8.44,8.44,0,1,1-16.88,0V213.87a8.44,8.44,0,0,1,13.8-6.52l10.95,9,11-9a8.45,8.45,0,0,1,13.81,6.52v35.37a8.44,8.44,0,0,1-8.44,8.44Z"/><circle class="cls-5" cx="350.52" cy="194.67" r="8.44"/></g><g class="cls-4"><g id="Layer_2" data-name="Layer 2"><path class="cls-5" d="M398.84,280.31H373.33c-1.41,0-3.18,1.41-4,2.58L362,294.18a15.25,15.25,0,0,0-1.71,4.76c-1.25,6.45-7.66,23-40.52,23-40.9,0-37.27-60.71-36-74a7.45,7.45,0,0,0-1.25-4.56L255,205.77c-.85-1.13-2.68-3-4.09-3H235.57c-1.41,0-3.27.07-4.14-1l-17.23-21.4a5.86,5.86,0,0,0-4.14-1.83H189.65c-1.41,0-3.94,1.78-3.94,3.19v5.1c0,1.41.25,1.4-1.16,1.4H169.24c-1.41,0-3.44-.14-4.54-1l-21.53-17a8.23,8.23,0,0,0-4.54-1.37H113.12a1.9,1.9,0,0,0-2,1.81,2,2,0,0,0,.11.72l14,52.18c.36,1.36-.47,3.45-1.88,3.45H113.12c-1.41,0-1.75-.14-.75.85l16.8,16.33a20.91,20.91,0,0,1,3.12,3.52l28,46.64a2.79,2.79,0,0,0,3.59,1.05l5.64-2.82a2.78,2.78,0,0,0,1.31-3.5l-33.77-83c-.53-1.31.17-3.32,1.58-3.32h5.11c1.41,0,3.18,1.91,4,3.08l48.19,72.77a21.6,21.6,0,0,1,2.12,4.82l8.8,30.92a8.49,8.49,0,0,0,2.79,4l46.84,32.82a6.74,6.74,0,0,0,4.59.95l45.38-9.48a7.55,7.55,0,0,1,4.69.79l21.77,13a3.45,3.45,0,0,0,4-.5l6.59-6.29a6.85,6.85,0,0,1,4.36-1.5h15.31a1.65,1.65,0,0,0,1.7-1.6,1.64,1.64,0,0,0-.29-1l-2.82-5.79a3.91,3.91,0,0,1,.66-4.17l32.11-32.14a10.87,10.87,0,0,0,2.42-4.3l3.86-15.93a2.27,2.27,0,0,0-1.5-2.84A2,2,0,0,0,398.84,280.31Z"/></g></g><path class="cls-6" d="M252.56,0V512c141.39,0,256-114.62,256-256S394,0,252.56,0Z"/><text class="cls-7" transform="translate(605.91 292.94)"><tspan class="cls-8">I</tspan><tspan class="cls-9" x="91.5" y="0">n</tspan><tspan class="cls-8" x="262.5" y="0">vier</tspan><tspan class="cls-10" x="798.6" y="0">t</tspan><tspan class="cls-11" x="916.8" y="0">e</tspan><tspan class="cls-3" x="1079.4" y="0">M</tspan><tspan class="cls-12"><tspan class="cls-13" x="-32.25" y="120">T</tspan><tspan x="27.27" y="120">odos m</tspan><tspan class="cls-14" x="422.79" y="120">o</tspan><tspan class="cls-15" x="491.55" y="120">v</tspan><tspan x="556.35" y="120">emos a </tspan><tspan class="cls-16" x="966.39" y="120">M</tspan><tspan class="cls-15" x="1061.55" y="120">é</tspan><tspan x="1126.95" y="120">xi</tspan><tspan class="cls-17" x="1223.55" y="120">c</tspan><tspan x="1280.43" y="120">o</tspan></tspan></text></svg>